<?xml version="1.0" standalone="no"?>
<!DOCTYPE svg PUBLIC "-//W3C//DTD SVG 20010904//EN"
 "http://www.w3.org/TR/2001/REC-SVG-20010904/DTD/svg10.dtd">
<svg version="1.0" xmlns="http://www.w3.org/2000/svg"
 width="746.000000pt" height="746.000000pt" viewBox="0 0 746.000000 746.000000"
 preserveAspectRatio="xMidYMid meet">
<metadata>
Created by potrace 1.11, written by Peter Selinger 2001-2013
</metadata>
<g transform="translate(0.000000,746.000000) scale(0.100000,-0.100000)"
fill="#000000" stroke="none">
<path d="M3368 7085 c-5 -6 -91 -17 -144 -19 -24 0 -50 -9 -61 -18 -11 -10
-24 -18 -30 -18 -20 0 -23 -30 -23 -195 0 -178 -6 -200 -60 -208 -14 -2 -32
-7 -40 -10 -8 -3 -24 -7 -34 -9 -11 -2 -31 -13 -45 -26 -26 -24 -73 -49 -106
-57 -84 -19 -111 -27 -123 -37 -7 -6 -35 -12 -61 -12 -27 -1 -55 -7 -62 -13
-16 -13 -89 -44 -89 -38 0 2 -17 -2 -37 -9 -21 -7 -46 -12 -55 -11 -9 2 -19
-3 -22 -10 -6 -17 -106 -64 -149 -70 -32 -4 -38 -5 -114 -23 -24 -5 -43 -7
-43 -3 0 3 -5 -2 -11 -11 -5 -10 -16 -18 -22 -18 -7 0 -30 -9 -51 -19 -33 -17
-79 -30 -163 -47 -12 -2 -33 -8 -45 -13 -13 -5 -25 -8 -28 -8 -3 0 -15 -5 -26
-11 -12 -6 -36 -14 -54 -17 -18 -3 -58 -15 -89 -26 -31 -11 -69 -22 -86 -25
-16 -3 -35 -10 -40 -14 -6 -5 -23 -11 -39 -14 -33 -6 -116 -36 -132 -48 -6 -4
-19 -9 -30 -11 -10 -2 -39 -13 -64 -24 -25 -11 -61 -24 -80 -29 -19 -4 -42 -9
-50 -11 -8 -2 -24 -5 -35 -7 -29 -3 -128 -37 -139 -47 -6 -5 -20 -9 -33 -9
-18 0 -23 -7 -28 -37 -3 -21 -11 -56 -18 -78 -8 -26 -11 -104 -10 -225 1 -102
3 -429 4 -727 2 -455 0 -545 -12 -559 -12 -14 -14 -91 -15 -443 0 -234 -1
-714 -2 -1066 -1 -351 2 -642 6 -646 4 -4 23 -15 43 -26 19 -10 49 -29 65 -41
65 -51 124 -92 151 -105 15 -9 35 -25 43 -38 8 -12 22 -28 30 -35 15 -13 35
-34 109 -109 21 -22 58 -55 82 -73 94 -70 135 -103 159 -125 14 -13 36 -29 48
-36 13 -7 45 -34 71 -60 27 -27 71 -63 97 -82 27 -18 90 -74 139 -125 66 -67
106 -99 150 -119 55 -26 137 -77 225 -140 19 -14 44 -39 55 -56 11 -17 40 -41
65 -54 53 -27 127 -91 216 -186 22 -24 67 -64 99 -89 33 -25 93 -78 133 -118
l74 -72 37 19 c20 11 70 34 111 52 41 17 77 34 80 38 8 10 110 71 119 71 4 0
32 23 62 50 30 28 64 53 77 56 12 4 22 9 22 13 0 3 18 15 40 25 22 11 40 23
40 27 0 4 27 26 59 49 33 23 62 48 65 56 3 8 12 14 19 14 8 0 25 11 38 23 13
13 37 27 53 31 35 9 83 43 89 65 2 9 17 23 33 31 16 8 47 27 69 41 22 15 63
37 90 49 116 51 130 60 160 106 22 33 45 53 85 73 89 43 154 88 187 128 27 35
143 123 161 123 9 0 84 54 214 154 56 43 113 83 128 90 14 6 34 19 44 28 11
10 23 18 27 18 4 0 30 29 58 64 46 58 58 67 126 91 41 15 91 42 112 59 81 68
291 206 314 206 5 0 9 5 9 10 0 6 6 10 13 10 26 0 103 43 132 75 20 21 38 58
54 111 13 43 29 93 37 110 8 18 19 67 25 110 6 44 21 101 34 129 13 27 31 82
41 120 9 39 30 108 47 155 16 47 36 105 44 130 7 25 20 63 28 85 30 88 35 102
48 155 8 30 20 79 27 107 6 29 27 89 46 134 33 78 53 152 89 324 9 44 20 96
25 116 6 20 10 46 10 58 0 12 4 29 9 39 14 26 58 179 71 247 6 33 30 117 52
187 22 70 42 149 45 175 4 42 12 71 44 148 4 11 13 38 19 60 7 22 18 49 24 60
7 11 18 40 25 65 7 25 16 59 21 75 5 17 12 48 16 70 4 22 15 63 25 90 10 28
25 86 33 130 8 44 22 100 30 124 9 24 16 56 16 72 0 16 6 46 14 66 8 21 17 55
19 75 5 34 1 41 -46 89 -28 28 -65 56 -82 62 -16 5 -50 24 -75 41 -39 28 -70
45 -90 51 -54 14 -177 69 -238 105 -18 11 -50 23 -70 26 -20 3 -52 14 -72 24
-19 10 -82 37 -140 61 -58 23 -118 51 -135 61 -48 29 -78 41 -110 43 -41 4
-72 17 -125 56 -25 18 -53 35 -64 36 -10 2 -55 21 -100 43 -44 21 -93 42 -109
45 -15 3 -35 13 -45 23 -10 10 -28 18 -41 19 -13 1 -33 11 -46 23 -12 11 -24
18 -27 15 -7 -8 -70 16 -97 37 -13 10 -32 18 -43 18 -11 0 -29 5 -41 12 -12 7
-28 13 -35 14 -8 1 -21 6 -30 10 -9 4 -24 8 -32 10 -14 3 -47 17 -84 36 -10 5
-30 12 -43 14 -14 3 -51 18 -84 34 -32 17 -64 30 -70 30 -7 0 -20 6 -28 13
-23 20 -157 77 -194 83 -36 6 -65 6 -87 1 -60 -15 -79 -22 -105 -41 -34 -24
-85 -44 -135 -52 -19 -3 -42 -11 -50 -18 -24 -20 -71 -37 -82 -30 -5 4 -24 -4
-41 -17 -59 -43 -147 -19 -147 41 0 10 -7 20 -15 24 -8 3 -20 16 -26 29 -6 13
-25 29 -43 35 -18 7 -41 21 -51 32 -10 11 -28 20 -41 20 -13 0 -25 4 -28 9 -4
5 -14 8 -24 7 -9 -2 -31 3 -48 10 -17 7 -33 11 -36 9z"/>
</g>
</svg>
